<svg id="Слой_1" data-name="Слой 1" xmlns="http://www.w3.org/2000/svg" viewBox="0 0 17.88 7.66"><defs><style>.cls-1{fill:#010101;}</style></defs><path class="cls-1" d="M289.77,420.18h15.28L303.32,418a.64.64,0,0,1,1-.8l2.55,3.2s0,0,0,.05l.05.07a.64.64,0,0,1,0,.07.29.29,0,0,1,0,.09.19.19,0,0,1,0,.08v.07a.29.29,0,0,1,0,.09.29.29,0,0,1,0,.09s0,0,0,.06l-.05.07s0,0,0,0l-2.55,3.2a.63.63,0,0,1-.5.24.67.67,0,0,1-.4-.14.65.65,0,0,1-.1-.9l1.73-2.16H289.77a.64.64,0,1,1,0-1.27Z" transform="translate(-289.13 -416.98)"/></svg>