<svg id="Слой_1" data-name="Слой 1" xmlns="http://www.w3.org/2000/svg" viewBox="0 0 12.8 12.8"><path d="M299.06,426l-1.1-1.1-1-1c-.05-.05-.09-.09-.18,0l-1.24.72,2.18,2.18a4.73,4.73,0,0,1-1.51.44,4.17,4.17,0,0,1-.79,0,1.66,1.66,0,0,1-1-.52l-2.2-2.2a1.84,1.84,0,0,1-.51-1.12,4.19,4.19,0,0,1,.46-2.17,12,12,0,0,1,2.17-3.16,14.32,14.32,0,0,1,3.45-2.8,6.42,6.42,0,0,1,2-.76,2.32,2.32,0,0,1,1.78.34l.11.1c.72.72,1.43,1.45,2.16,2.15a2.07,2.07,0,0,1,.64,1.53,4.39,4.39,0,0,1-.37,1.64L302,418.05l-.74,1.37,2.21,2.16a14,14,0,0,1-1.43,1.89l-2.15-2.16-1.09,1,2.19,2.18A14.07,14.07,0,0,1,299.06,426Zm1.71-9.63v-.1c0-.26-.06-.32-.31-.34a1.39,1.39,0,0,0-.41,0,4.76,4.76,0,0,0-1.55.62,13.31,13.31,0,0,0-3.74,3.31,8.32,8.32,0,0,0-1.32,2.25,2.54,2.54,0,0,0-.2,1c0,.19.07.26.26.29a2,2,0,0,0,.35,0,4,4,0,0,0,1.29-.44,11.86,11.86,0,0,0,3.18-2.45,11.1,11.1,0,0,0,2-2.76A3.46,3.46,0,0,0,300.77,416.38Z" transform="translate(-291.71 -414.4)"/></svg>