<svg id="Слой_1" data-name="Слой 1" xmlns="http://www.w3.org/2000/svg" viewBox="0 0 54.41 48.82"><defs><style>.cls-1{fill:#663618;}</style></defs><path class="cls-1" d="M277.41,420.74c-.83-.42-1.64-.8-2.41-1.23a9.19,9.19,0,0,1-3.26-2.81,4.75,4.75,0,0,1-.86-2.76v-8.17a5.2,5.2,0,0,1,1.68-3.74,14.78,14.78,0,0,1,5.69-3.31A37.52,37.52,0,0,1,289,396.54a82,82,0,0,1,8.73-.1,36.64,36.64,0,0,1,13.45,2.9,19.69,19.69,0,0,1,3.83,2.37,5.18,5.18,0,0,1,2.07,4.58c-.05.83,0,1.66,0,2.49,0,.44.17.6.55.78a46,46,0,0,1,4.65,2.35,5.88,5.88,0,0,1,2.89,3.89,5.43,5.43,0,0,1,.09,1.14c0,2.53,0,5.07,0,7.6a5.39,5.39,0,0,1-1.61,4,14,14,0,0,1-5.66,3.34c-.73.26-1,.59-.93,1.36s0,1.49,0,2.23a5.26,5.26,0,0,1-1.64,4,15.07,15.07,0,0,1-6,3.48A37.56,37.56,0,0,1,299,445a79.46,79.46,0,0,1-8.73.1,36.74,36.74,0,0,1-14.6-3.42,10.59,10.59,0,0,1-3.45-2.59,5.18,5.18,0,0,1-1.31-3.5c0-2.58,0-5.16,0-7.73a5.29,5.29,0,0,1,1.52-3.81,13,13,0,0,1,4.37-2.91l.52-.24S277.34,420.83,277.41,420.74Zm17-21.83a53,53,0,0,0-10.21.92A23.89,23.89,0,0,0,276,402.7a8.45,8.45,0,0,0-1.94,1.63,2.05,2.05,0,0,0,0,2.9,7.29,7.29,0,0,0,1.35,1.25,16.13,16.13,0,0,0,4.77,2.23,43.21,43.21,0,0,0,10.46,1.82,49.82,49.82,0,0,0,15.44-1.34,18.35,18.35,0,0,0,6.79-3c2.09-1.61,2.13-3.34,0-4.87a17.57,17.57,0,0,0-3.8-2A42.74,42.74,0,0,0,294.43,398.91Zm22.66,13.24c0,.57,0,1,0,1.46a4.88,4.88,0,0,1-1.76,4.13,17.66,17.66,0,0,1-3.47,2.35,33.84,33.84,0,0,1-11.15,3l-1,.13-.91.1a.37.37,0,0,0,.33.18A51.34,51.34,0,0,0,313,422.4a22,22,0,0,0,7.13-2.65,9.72,9.72,0,0,0,2.14-2,1.75,1.75,0,0,0,0-2.2C321.05,413.77,319.12,413,317.09,412.15Zm-19.61,22.3v-.23l-.41-.08a46.8,46.8,0,0,1-9.31-1.77,18,18,0,0,1-6.56-3.31,5.54,5.54,0,0,1-2.16-4.75c0-.37,0-.75,0-1.26a12.28,12.28,0,0,0-1.5.64,22.73,22.73,0,0,0-3.19,2.18,2.16,2.16,0,0,0,0,3.46,6.75,6.75,0,0,0,1.75,1.37,36,36,0,0,0,4.63,1.95,43.94,43.94,0,0,0,12.39,1.79C294.56,434.47,296,434.45,297.48,434.45Zm-2.17,8.19c1.8-.14,3.49-.27,5.18-.43.13,0,.32-.32.33-.49,0-.72,0-1.45,0-2.17v-2.83c-1.8.11-3.52.22-5.23.35a.47.47,0,0,0-.29.32C295.31,439.08,295.31,440.78,295.31,442.64Zm-8.08-5.92a.62.62,0,0,0-.08.21c0,1.61,0,3.23,0,4.85,0,.43.29.45.6.47,1.44.1,2.88.19,4.32.32.49.05.64-.11.64-.58,0-1.38,0-2.77,0-4.15,0-.24,0-.49-.06-.75Zm13.6-5c0-1.84,0-3.55,0-5.27,0-.11-.3-.31-.48-.33-.73-.07-1.48-.08-2.22-.13l-2.77-.21v5.53Zm2.66,0,5.47-.41v-5.49c-1.74.1-3.41.19-5.08.32a.56.56,0,0,0-.38.37C303.48,428.2,303.49,429.87,303.49,431.73ZM292.63,415.3l-5.49-.4c0,1.76,0,3.46,0,5.15,0,.13.24.33.39.35.78.12,1.56.2,2.34.26s1.8.09,2.74.13Zm2.72,5.55c1.69-.14,3.31-.3,4.94-.41.46,0,.56-.22.56-.63,0-1.36,0-2.72,0-4.08,0-.27,0-.54,0-.83l-5.45.4ZM279.05,435s-.06.07-.07.11c0,1.61,0,3.22,0,4.84a.56.56,0,0,0,.3.41c1.69.51,3.39,1,5.18,1.52,0-.41.05-.64.05-.87,0-1.08,0-2.16,0-3.25,0-1.44,0-1.43-1.39-1.75S280.4,435.31,279.05,435Zm30,0c-1.73.41-3.35.82-5,1.16-.47.1-.57.3-.57.72,0,1.42,0,2.85,0,4.27a5.41,5.41,0,0,0,.09.71c1.75-.51,3.44-1,5.11-1.51.16,0,.32-.38.33-.58,0-1,0-2,0-3Zm8.17-10.89a2,2,0,0,0-.28,0c-1.61.4-3.21.81-4.82,1.19-.38.09-.44.3-.44.63,0,1.46,0,2.93,0,4.4a5.46,5.46,0,0,0,.1.64c1.78-.51,3.48-1,5.18-1.52.13,0,.25-.37.25-.56,0-1,0-2.09,0-3.13ZM279,413.19c0,1.7,0,3.37,0,5,0,.13.22.3.37.35.7.25,1.4.48,2.12.68,1,.25,1.92.46,3,.72,0-1.83,0-3.55,0-5.26,0-.11-.18-.29-.31-.32C282.46,414,280.77,413.61,279,413.19Zm8.16,10.9c0,1.7,0,3.37,0,5,0,.13.27.3.44.36.82.28,1.65.55,2.49.77s1.66.39,2.58.6c0-1.82,0-3.49,0-5.17,0-.13-.22-.34-.38-.38C290.6,424.9,288.93,424.51,287.13,424.09ZM309,413.19c-1.83.42-3.52.8-5.21,1.22-.15,0-.32.37-.32.57,0,1.08,0,2.17,0,3.25v1.6c.15,0,.2.07.23.06,1.66-.44,3.32-.87,5-1.34A.69.69,0,0,0,309,418c0-.64,0-1.27,0-1.91Zm-35.51-2.74v3.16a4,4,0,0,0,2.8,3.45c0-1.61,0-3.19,0-4.78a.5.5,0,0,0-.22-.35Zm40.93,0c-.85.49-1.59,1-2.35,1.35a.73.73,0,0,0-.45.75c0,1,0,2,0,3.06v1.44l.2.12a16.8,16.8,0,0,0,1.76-1.48,2.78,2.78,0,0,0,.8-1.48C314.52,413,314.44,411.77,314.44,410.46ZM276.06,439l.25-.15c0-1.59,0-3.18,0-4.77a.41.41,0,0,0-.17-.31c-.84-.51-1.7-1-2.62-1.52,0,1.17-.05,2.25,0,3.33a2.78,2.78,0,0,0,.52,1.52A19,19,0,0,0,276.06,439Zm46.56-17.66c-.85.5-1.61.91-2.33,1.38a1.07,1.07,0,0,0-.44.72c-.05,1.36,0,2.72,0,4.08a4.3,4.3,0,0,0,.11.62,15.87,15.87,0,0,0,1.8-1.5,3.13,3.13,0,0,0,.84-1.58A35.14,35.14,0,0,0,322.62,421.35Zm-40.93.73v2.31a3.94,3.94,0,0,0,2.76,3.58c0-.24,0-.47,0-.69,0-1.17-.05-2.34,0-3.5a1.08,1.08,0,0,0-.92-1.27C283,422.35,282.38,422.23,281.69,422.08Zm30,16.82c2.27-.77,3.25-2.93,2.72-5.95l-2.24.64c-.39.12-.49.4-.49.78,0,1,0,2,0,3.06Z" transform="translate(-270.87 -396.36)"/></svg>