<svg id="Слой_1" data-name="Слой 1" xmlns="http://www.w3.org/2000/svg" viewBox="0 0 24.11 28.94"><defs><style>.cls-1{fill:#c19d5e;}</style></defs><path class="cls-1" d="M286.55,435.66a.89.89,0,0,1-.53-.93q0-9.74,0-19.49c0-.74.23-1,1-1h4v-.33c0-.9,0-1.79,0-2.69a4.73,4.73,0,0,1,4-4.47,4.8,4.8,0,0,1,3,.56.42.42,0,0,0,.33,0,4.67,4.67,0,0,1,6.71,2.56,6,6,0,0,1,.26,1.57c0,.82,0,1.64,0,2.46v.33l.35,0h3.59c.67,0,.92.25.92.92,0,6.52,0,13.05,0,19.57a.86.86,0,0,1-.53.9Zm17.23-1.47V415.75H287.51v18.44Zm4.86,0V415.76h-3.36v18.43Zm-11.71-25.72a3.22,3.22,0,0,0-4.51,2.87c0,.89,0,1.79,0,2.68a2,2,0,0,0,0,.23h3.44c0-.89,0-1.77,0-2.64a8.93,8.93,0,0,1,.09-1A4.73,4.73,0,0,1,296.93,408.47Zm6.86,5.78c0-1.08,0-2.12,0-3.17a1.23,1.23,0,0,0,0-.19,3.21,3.21,0,0,0-2.79-2.67,2.85,2.85,0,0,0-1.67.25l.1.14a4.31,4.31,0,0,1,.88,2.22c.05.76,0,1.52.05,2.28,0,.38,0,.75,0,1.14Zm-5.68-4.9a2.74,2.74,0,0,0-.71,1.57c0,1,0,1.92-.06,2.87v.46h1.52c0-1.07,0-2.11,0-3.15A2.75,2.75,0,0,0,298.11,409.35Z" transform="translate(-286.02 -406.73)"/></svg>