<svg id="Слой_1" data-name="Слой 1" xmlns="http://www.w3.org/2000/svg" viewBox="0 0 18.01 18.01"><defs><style>.cls-1{fill:#c19d5e;}</style></defs><path class="cls-1" d="M298.07,411.77a9,9,0,1,0,9,9A9,9,0,0,0,298.07,411.77Zm0,16.89a7.88,7.88,0,1,1,7.89-7.88A7.88,7.88,0,0,1,298.07,428.66Z" transform="translate(-289.07 -411.77)"/><path class="cls-1" d="M298.9,420.78l3-2.93a.56.56,0,0,0,0-.79.58.58,0,0,0-.81,0L298.1,420l-3-3a.58.58,0,0,0-.81,0,.57.57,0,0,0,0,.8l3,3-3,3a.57.57,0,0,0,.8.8l3-3,3,3a.57.57,0,0,0,.8,0,.58.58,0,0,0,0-.81Z" transform="translate(-289.07 -411.77)"/></svg>