<svg id="Слой_1" data-name="Слой 1" xmlns="http://www.w3.org/2000/svg" viewBox="0 0 20.79 20.8"><defs><style>.cls-1{fill:#663618;}</style></defs><path class="cls-1" d="M298.52,431.39h-.61l-.27-.05c-.41,0-.81-.06-1.21-.14a10.38,10.38,0,0,1-6.94-4.71,9.88,9.88,0,0,1-1.4-7.63,10.12,10.12,0,0,1,3.57-5.85,9.93,9.93,0,0,1,8.6-2.2A10.27,10.27,0,0,1,307,415.5a9.89,9.89,0,0,1,1.54,4.4l.09.76v.61c0,.07,0,.15,0,.23a15.19,15.19,0,0,1-.19,1.51,10.38,10.38,0,0,1-4.42,6.56,9.94,9.94,0,0,1-4.67,1.73ZM289.12,421a9.12,9.12,0,1,0,9.16-9.13A9,9,0,0,0,289.12,421Z" transform="translate(-287.85 -410.59)"/><path class="cls-1" d="M299.12,421l2.74,2.72-.89.89c-.06-.06-.15-.13-.22-.21-.79-.78-1.57-1.56-2.34-2.35-.13-.13-.21-.13-.34,0-.79.81-1.6,1.6-2.4,2.4a1,1,0,0,1-.18.17l-.86-.9,2.72-2.72-2.74-2.72.89-.89,2.7,2.72,2.76-2.76.9.92Z" transform="translate(-287.85 -410.59)"/></svg>