<svg id="Слой_1" data-name="Слой 1" xmlns="http://www.w3.org/2000/svg" viewBox="0 0 17.49 17.51"><path d="M297.09,420.79l-5.54-5.53-1.81-1.8c-.45-.46-.51-.89-.16-1.22s.75-.26,1.19.17l6.82,6.83c.16.16,0,0,.47.51l.42-.39,6.89-6.89a2.91,2.91,0,0,1,.37-.33.69.69,0,0,1,.88.11.67.67,0,0,1,.12.87,2.37,2.37,0,0,1-.33.38l-6.89,6.88a2.87,2.87,0,0,0-.4.45,4.37,4.37,0,0,1,.43.38q3.46,3.44,6.89,6.89a1.23,1.23,0,0,1,.36.78c0,.2-.26.46-.47.58s-.58,0-.81-.23l-2.41-2.41-5-5-.37.34q-3.45,3.43-6.89,6.89c-.09.08-.17.18-.26.25a.73.73,0,0,1-1,0,.74.74,0,0,1,0-1,3.07,3.07,0,0,1,.26-.25q3.42-3.43,6.86-6.86C296.79,421.05,296.68,421.17,297.09,420.79Z" transform="translate(-289.35 -412.03)"/></svg>