<svg id="Слой_1" data-name="Слой 1" xmlns="http://www.w3.org/2000/svg" viewBox="0 0 142.81 34.92"><defs><style>.cls-1{fill:#010101;}</style></defs><rect class="cls-1" width="1.91" height="34.92"/><rect class="cls-1" x="3" width="1.91" height="34.92"/><rect class="cls-1" x="9" width="1.91" height="30.73"/><rect class="cls-1" x="27" width="1.91" height="30.73"/><rect class="cls-1" x="16.9" width="0.96" height="30.73"/><rect class="cls-1" x="58.91" width="0.96" height="30.73"/><rect class="cls-1" x="69.91" width="0.96" height="34.92"/><rect class="cls-1" x="71.91" width="0.96" height="34.92"/><rect class="cls-1" x="12" width="2.88" height="30.73"/><rect class="cls-1" x="32" width="3.92" height="30.73"/><rect class="cls-1" x="52.95" width="3.92" height="30.73"/><rect class="cls-1" x="106.93" width="3.92" height="30.73"/><rect class="cls-1" x="116.93" width="3.92" height="30.73"/><rect class="cls-1" x="127.93" width="3.92" height="30.73"/><rect class="cls-1" x="132.93" width="2.63" height="30.73"/><rect class="cls-1" x="61.95" width="5.89" height="30.73"/><rect class="cls-1" x="21.85" width="2.88" height="30.73"/><rect class="cls-1" x="40.98" width="2.88" height="30.73"/><rect class="cls-1" x="44.98" width="1.79" height="30.73"/><rect class="cls-1" x="47.98" width="1.79" height="30.73"/><rect class="cls-1" x="75.08" width="1.79" height="30.73"/><rect class="cls-1" x="81.08" width="1.79" height="30.73"/><rect class="cls-1" x="85.08" width="1.79" height="30.73"/><rect class="cls-1" x="90.08" width="1.79" height="30.73"/><rect class="cls-1" x="138.03" width="1.79" height="34.92"/><rect class="cls-1" x="141.03" width="1.79" height="34.92"/><rect class="cls-1" x="96.08" width="1.79" height="30.73"/><rect class="cls-1" x="103.08" width="1.1" height="30.73"/><rect class="cls-1" x="113.08" width="1.1" height="30.73"/><rect class="cls-1" x="125.08" width="1.1" height="30.73"/></svg>