<svg id="Слой_1" data-name="Слой 1" xmlns="http://www.w3.org/2000/svg" viewBox="0 0 13.43 15.95"><defs><style>.cls-1{fill:#b18539;}</style></defs><path class="cls-1" d="M303.59,418.29a.62.62,0,0,0-.58-.58.6.6,0,0,0-.62.49,1.23,1.23,0,0,0,0,.27v8.3a.65.65,0,0,1-.75.75h-7.11a.65.65,0,0,1-.73-.73v-8.48a.63.63,0,0,0-.54-.61.6.6,0,0,0-.65.43,1,1,0,0,0,0,.3c0,1.41,0,2.82,0,4.24v4.18a1.88,1.88,0,0,0,1.9,1.89h7.25a1.89,1.89,0,0,0,1.9-1.9v-8.38A1.09,1.09,0,0,0,303.59,418.29Z" transform="translate(-291.36 -412.8)"/><path class="cls-1" d="M304.13,415.25h-3v-1.73a.63.63,0,0,0-.71-.72h-4.7c-.49,0-.72.23-.72.73v1.72h-3a.57.57,0,0,0-.63.57.61.61,0,0,0,.64.66h12.14a.57.57,0,0,0,.65-.59A.6.6,0,0,0,304.13,415.25Zm-4.22,0h-3.66V414h3.66Z" transform="translate(-291.36 -412.8)"/><path class="cls-1" d="M297.47,419.6a.6.6,0,0,0-.61-.66.62.62,0,0,0-.62.66v4.79a.62.62,0,1,0,1.23,0V419.6Z" transform="translate(-291.36 -412.8)"/><path class="cls-1" d="M298.68,424.41a.57.57,0,0,0,.6.64.6.6,0,0,0,.62-.65c0-1.6,0-3.2,0-4.79a1,1,0,0,0,0-.3.61.61,0,0,0-1.17.23V422h0C298.68,422.8,298.67,423.6,298.68,424.41Z" transform="translate(-291.36 -412.8)"/></svg>