<svg id="Слой_1" data-name="Слой 1" xmlns="http://www.w3.org/2000/svg" viewBox="0 0 7.91 7.91"><defs><style>.cls-1{fill:#fff;}</style></defs><path class="cls-1" d="M297.28,420.77a.92.92,0,0,1-.17-.13l-2.81-2.8a.58.58,0,0,1-.08-.81.57.57,0,0,1,.87,0l1.37,1.37,1.48,1.48.13.12a1.7,1.7,0,0,1,.1-.14L301,417a.6.6,0,0,1,.59-.19.57.57,0,0,1,.31.9l-.13.14L299,420.67l-.11.11.12.12,2.79,2.79a.68.68,0,0,1,.23.4.56.56,0,0,1-.3.58.55.55,0,0,1-.65-.1c-.32-.3-.62-.61-.93-.92l-2-2-.1-.09-.11.11-2.83,2.83a.57.57,0,0,1-.89-.72l.12-.12c.93-.93,1.85-1.86,2.78-2.78Z" transform="translate(-294.09 -416.83)"/></svg>