<svg id="Слой_1" data-name="Слой 1" xmlns="http://www.w3.org/2000/svg" viewBox="0 0 17.86 17.86"><defs><style>.cls-1{fill:#663618;}</style></defs><path class="cls-1" d="M297.22,420.07H290.7a1.48,1.48,0,0,0-1.56,1.55v6.5a1.47,1.47,0,0,0,1.56,1.57h6.5a1.47,1.47,0,0,0,1.57-1.56v-6.52A1.46,1.46,0,0,0,297.22,420.07Zm-.73,2.59A8,8,0,0,1,295,426a1.43,1.43,0,0,1-1,.56,1.56,1.56,0,0,1-1.08-.47,4.06,4.06,0,0,1-1-1.62,16.7,16.7,0,0,1-.49-1.71.42.42,0,0,1,.54-.55.49.49,0,0,1,.3.4,8.09,8.09,0,0,0,.57,1.87,2.78,2.78,0,0,0,.72,1.06.46.46,0,0,0,.71,0,3.75,3.75,0,0,0,.83-1.38c.19-.49.33-1,.5-1.48,0-.05,0-.11,0-.17a.43.43,0,0,1,.49-.28A.41.41,0,0,1,296.49,422.66Z" transform="translate(-289.14 -411.85)"/><path class="cls-1" d="M306.53,428.86h-.94v-15.1a1.84,1.84,0,0,0-1.91-1.91H296a1.84,1.84,0,0,0-1.91,1.91v1.56c0,.77,0,1.54,0,2.3a.43.43,0,0,0,.26.43.42.42,0,0,0,.59-.43c0-1.28,0-2.55,0-3.83A1,1,0,0,1,296,412.7h7.6a1,1,0,0,1,1.1,1.1v15.06h-4.05c-.31,0-.49.16-.49.43a.43.43,0,0,0,.49.42h5.83a.42.42,0,0,0,.48-.42A.42.42,0,0,0,306.53,428.86Z" transform="translate(-289.14 -411.85)"/><path class="cls-1" d="M302.46,421.2h.71a.43.43,0,1,0,0-.85h-1.4a.43.43,0,1,0,0,.85Z" transform="translate(-289.14 -411.85)"/></svg>