<svg id="Слой_1" data-name="Слой 1" xmlns="http://www.w3.org/2000/svg" viewBox="0 0 15.73 16.64"><defs><style>.cls-1{fill:#68381b;}</style></defs><path class="cls-1" d="M300.84,421.31a.61.61,0,0,0-.66-.09.59.59,0,0,0-.36.57c0,.78,0,1.55,0,2.33v.2h-2.64V424q0-3.66,0-7.32a.75.75,0,0,0-.39-.7c-1.19-.72-2.37-1.45-3.55-2.18l-.17-.12h6.74V414c0,.78,0,1.55,0,2.33a.61.61,0,0,0,.64.64.63.63,0,0,0,.6-.69v-3c0-.47-.1-.63-.53-.8h-9.81a.83.83,0,0,0-.51.51v12.13a1.14,1.14,0,0,0,.51.53c.48.28.95.58,1.42.87l4,2.47a.91.91,0,0,0,.48.13.59.59,0,0,0,.54-.66v-2.86h3.22a.61.61,0,0,0,.67-.63c0-1.05,0-2.09,0-3.14A.61.61,0,0,0,300.84,421.31Zm-4.91,5.93v.12l-.2-.12-4.14-2.55a.25.25,0,0,1-.14-.24q0-5,0-10.05a1.15,1.15,0,0,1,0-.18l.14.08,4.19,2.58a.22.22,0,0,1,.13.22Z" transform="translate(-290.21 -412.45)"/><path class="cls-1" d="M303.42,416.5a.59.59,0,0,0-.84,0,.63.63,0,0,0,0,.87c.1.11.21.22.32.32l.67.64,0,0h-4.33a.67.67,0,0,0-.54.21.6.6,0,0,0-.11.66.59.59,0,0,0,.59.38h4.45l-1,1a.63.63,0,0,0-.2.55.61.61,0,0,0,.42.5.59.59,0,0,0,.65-.17l2.42-2.42a.27.27,0,0,0,.07-.08Z" transform="translate(-290.21 -412.45)"/></svg>