<svg id="Слой_1" data-name="Слой 1" xmlns="http://www.w3.org/2000/svg" viewBox="0 0 12.05 14.96"><defs><style>.cls-1{fill:#ba975b;}</style></defs><path class="cls-1" d="M304.07,418.9a6,6,0,0,0-11.89,1.93,6.2,6.2,0,0,0,1.48,3.13c1.08,1.23,2.17,2.43,3.27,3.64.39.42.8.83,1.21,1.26.54-.56,1.06-1.1,1.57-1.65a46.86,46.86,0,0,0,3.17-3.58A5.87,5.87,0,0,0,304.07,418.9ZM302,423c-.87,1.05-1.79,2.05-2.69,3.07-.37.42-.77.81-1.17,1.24L296.93,426a35.68,35.68,0,0,1-2.8-3.22,5,5,0,1,1,8.91-3.6A4.76,4.76,0,0,1,302,423Z" transform="translate(-292.11 -413.9)"/><path class="cls-1" d="M298.15,417.51a2.41,2.41,0,1,0,2.39,2.42A2.42,2.42,0,0,0,298.15,417.51Zm0,3.74a1.34,1.34,0,1,1,1.32-1.34A1.32,1.32,0,0,1,298.15,421.25Z" transform="translate(-292.11 -413.9)"/></svg>