<svg id="Слой_1" data-name="Слой 1" xmlns="http://www.w3.org/2000/svg" viewBox="0 0 17.86 17.86"><defs><style>.cls-1{fill:#663618;}</style></defs><g id="Layer_2" data-name="Layer 2"><path class="cls-1" d="M298.07,411.85a8.93,8.93,0,1,0,8.93,8.93A8.94,8.94,0,0,0,298.07,411.85Zm0,16.37a7.45,7.45,0,1,1,7.45-7.44A7.45,7.45,0,0,1,298.07,428.22Z" transform="translate(-289.14 -411.85)"/><path class="cls-1" d="M298.07,419.06a.74.74,0,0,0-.74.75v5.06a.75.75,0,0,0,1.49,0v-5.06A.76.76,0,0,0,298.07,419.06Z" transform="translate(-289.14 -411.85)"/><path class="cls-1" d="M298.09,416a.8.8,0,0,0-.76.78v.12a.71.71,0,0,0,.73.71h0a.78.78,0,0,0,.75-.74v-.17A.68.68,0,0,0,298.09,416Z" transform="translate(-289.14 -411.85)"/></g></svg>