<svg id="Слой_1" data-name="Слой 1" xmlns="http://www.w3.org/2000/svg" viewBox="0 0 19.9 19.91"><defs><style>.cls-1{fill:#c19d5e;}</style></defs><path class="cls-1" d="M308,425c0-1.4,0-2.8,0-4.19v-4.39a5,5,0,0,0-1-3.12,6,6,0,0,0-5-2.43c-2.62,0-5.24,0-7.86,0a6.05,6.05,0,0,0-2.84.66,5.41,5.41,0,0,0-3.18,5v8.63a5,5,0,0,0,.93,3,5.91,5.91,0,0,0,4.91,2.57c2.7.05,5.4,0,8.1,0a6.33,6.33,0,0,0,2.5-.52A5.53,5.53,0,0,0,308,425Zm-4,3.85a4.47,4.47,0,0,1-1.91.42c-2.69,0-5.39,0-8.08,0a4.42,4.42,0,0,1-3.92-2.21,3.45,3.45,0,0,1-.5-1.83v-4.41c0-1.39,0-2.77,0-4.16a4.11,4.11,0,0,1,2.79-4,4.71,4.71,0,0,1,1.66-.32c2.69,0,5.38,0,8.06,0a4.51,4.51,0,0,1,3.73,1.88,3.66,3.66,0,0,1,.7,2.19c0,2.85,0,5.7,0,8.55A4,4,0,0,1,304,428.81Z" transform="translate(-288.09 -410.81)"/><path class="cls-1" d="M298.05,415.79a4.62,4.62,0,1,0,4.68,4.61A4.63,4.63,0,0,0,298.05,415.79Zm0,7.74a3.13,3.13,0,1,1,3.19-3.14A3.15,3.15,0,0,1,298.06,423.53Z" transform="translate(-288.09 -410.81)"/><path class="cls-1" d="M303.27,414.39a1,1,0,1,0,1,1A1,1,0,0,0,303.27,414.39Z" transform="translate(-288.09 -410.81)"/></svg>