<svg id="Слой_1" data-name="Слой 1" xmlns="http://www.w3.org/2000/svg" viewBox="0 0 35.36 47.16"><defs><style>.cls-1{fill:#ce5816;}</style></defs><path class="cls-1" d="M298.21,445.68a9.19,9.19,0,0,1-2.67-2.45,80.6,80.6,0,0,1-9.43-12.4,37.32,37.32,0,0,1-4.58-10.37,17.68,17.68,0,1,1,34.52-7.61,19.29,19.29,0,0,1-1.23,10.8,54.45,54.45,0,0,1-7.54,13,86,86,0,0,1-6.6,7.79,15.59,15.59,0,0,1-1.55,1.24Zm.48-37.29a7.84,7.84,0,1,0,7.82,7.83A7.83,7.83,0,0,0,298.69,408.39Z" transform="translate(-281 -398.53)"/></svg>