<svg id="Слой_1" data-name="Слой 1" xmlns="http://www.w3.org/2000/svg" viewBox="0 0 17.93 14.02"><defs><style>.cls-1{fill:#fff;}</style></defs><path class="cls-1" d="M290.12,415.79H306a1,1,0,0,0,0-2H290.12a1,1,0,0,0,0,2Z" transform="translate(-289.11 -413.76)"/><path class="cls-1" d="M306,419.76H290.12a1,1,0,0,0,0,2H306a1,1,0,0,0,0-2Z" transform="translate(-289.11 -413.76)"/><path class="cls-1" d="M306,425.76H290.12a1,1,0,0,0,0,2H306a1,1,0,0,0,0-2Z" transform="translate(-289.11 -413.76)"/></svg>