<svg id="Слой_1" data-name="Слой 1" xmlns="http://www.w3.org/2000/svg" viewBox="0 0 12.01 12.01"><defs><style>.cls-1{fill:#fff;}</style></defs><path class="cls-1" d="M296.44,426.78h-3.21a1.08,1.08,0,0,1-1.13-.86,1.66,1.66,0,0,1,0-.32c0-2.12,0-4.25,0-6.38a1.1,1.1,0,0,1,.86-1.14,1.19,1.19,0,0,1,.33,0h6.36a1.09,1.09,0,0,1,1.15.85,1.32,1.32,0,0,1,0,.34v6.38a1.1,1.1,0,0,1-.86,1.15,1.51,1.51,0,0,1-.3,0Zm-3.26-7.63v6.53h6.52v-6.53Z" transform="translate(-292.07 -414.77)"/><path class="cls-1" d="M301.9,423.5v-1.09H303v-6.53h-6.52V417h-1.1a10.31,10.31,0,0,1,0-1.36,1,1,0,0,1,1-.8h6.56a1.1,1.1,0,0,1,1.13.87,1.51,1.51,0,0,1,0,.3v6.42a1.08,1.08,0,0,1-1.14,1.15h-1Z" transform="translate(-292.07 -414.77)"/><path class="cls-1" d="M295.9,424.59V423h-1.64v-1.1h1.63v-1.64H297v1.63h1.64V423H297v1.63Z" transform="translate(-292.07 -414.77)"/></svg>