<svg id="Слой_1" data-name="Слой 1" xmlns="http://www.w3.org/2000/svg" viewBox="0 0 54.74 101.08"><defs><style>.cls-1{fill:#663618;}</style></defs><path class="cls-1" d="M317.31,370.24H278.84a8.15,8.15,0,0,0-8.14,8.13v84.81a8.15,8.15,0,0,0,8.14,8.13h38.47a8.15,8.15,0,0,0,8.14-8.13V378.37A8.15,8.15,0,0,0,317.31,370.24ZM274,378.37a4.88,4.88,0,0,1,4.88-4.87h38.47a4.87,4.87,0,0,1,4.87,4.87v1.7H274Zm0,5h48.22v65.43H274Zm48.22,79.85a4.87,4.87,0,0,1-4.87,4.87H278.84a4.88,4.88,0,0,1-4.88-4.87V452h48.22Z" transform="translate(-270.7 -370.24)"/><path class="cls-1" d="M298.08,466a5.92,5.92,0,1,0-5.92-5.92A5.92,5.92,0,0,0,298.08,466Zm0-8.58a2.66,2.66,0,1,1-2.66,2.66A2.66,2.66,0,0,1,298.08,457.38Z" transform="translate(-270.7 -370.24)"/><path class="cls-1" d="M306.48,398.35c-3.59,0-6.51,3.68-6.51,8.19,0,3.8,2.08,7,4.88,7.9v18.15a1.63,1.63,0,0,0,3.26,0V414.44c2.8-.92,4.88-4.1,4.88-7.9C313,402,310.07,398.35,306.48,398.35Zm0,13.12c-1.76,0-3.25-2.26-3.25-4.93s1.49-4.93,3.25-4.93,3.25,2.26,3.25,4.93S308.24,411.47,306.48,411.47Z" transform="translate(-270.7 -370.24)"/><path class="cls-1" d="M294.55,398.35a1.63,1.63,0,0,0-1.63,1.63v8.24a3.25,3.25,0,1,1-6.5,0h0V400a1.63,1.63,0,0,0-3.26,0v8.24A6.49,6.49,0,0,0,288,414.5v18.09a1.64,1.64,0,0,0,3.27,0V414.5a6.51,6.51,0,0,0,4.88-6.28V400A1.63,1.63,0,0,0,294.55,398.35Z" transform="translate(-270.7 -370.24)"/><path class="cls-1" d="M289.66,407.93h0a1.63,1.63,0,0,0,1.63-1.63h0V400a1.64,1.64,0,0,0-3.27,0v6.32A1.63,1.63,0,0,0,289.66,407.93Z" transform="translate(-270.7 -370.24)"/></svg>