<svg id="Слой_1" data-name="Слой 1" xmlns="http://www.w3.org/2000/svg" viewBox="0 0 13.73 10.29"><defs><style>.cls-1{fill:#010202;}</style></defs><path class="cls-1" d="M298.07,425.92c-4.3,0-6.7-4.69-6.8-4.89a.57.57,0,0,1,0-.51c.1-.2,2.5-4.89,6.8-4.89s6.71,4.69,6.81,4.89a.57.57,0,0,1,0,.51C304.78,421.23,302.38,425.92,298.07,425.92Zm-5.63-5.14c.53.92,2.56,4,5.63,4s5.11-3.08,5.64-4c-.53-.92-2.56-4-5.64-4S293,419.85,292.44,420.78Z" transform="translate(-291.21 -415.63)"/><path class="cls-1" d="M298.07,423.06a2.29,2.29,0,1,1,2.29-2.29h0a2.28,2.28,0,0,1-2.28,2.28Zm0-3.43a1.15,1.15,0,1,0,1.15,1.15h0A1.16,1.16,0,0,0,298.07,419.63Z" transform="translate(-291.21 -415.63)"/></svg>