<svg id="Слой_1" data-name="Слой 1" xmlns="http://www.w3.org/2000/svg" viewBox="0 0 71.77 30.77"><defs><style>.cls-1{fill:#663618;}</style></defs><path class="cls-1" d="M298.63,416.93H331.4c.3,0,.61,0,.92,0a1.84,1.84,0,0,1,1.72,1.83,1.8,1.8,0,0,1-1.74,1.89c-1.56,0-3.13,0-4.84,0v2.8c0,1.14,0,2.28,0,3.42,0,1.46-.72,2.3-1.93,2.28s-1.86-.84-1.86-2.26v-6.16h-2.81v3c0,1.08,0,2.16,0,3.23,0,1.38-.75,2.22-1.93,2.2s-1.86-.84-1.87-2.16c0-2,0-4,0-6a3,3,0,0,0-.08-.33h-.84c-5.5,0-11,0-16.5,0-.71,0-1,.16-1.1.92a15.33,15.33,0,0,1-23.65,10.29,1.72,1.72,0,1,1,1.82-2.89c4.32,2.6,8.71,2.82,13.06.17a11.85,11.85,0,0,0,5-13.6,11.95,11.95,0,0,0-23.2,1.52c0,.27,0,.54-.07,1,.27-.22.45-.34.61-.49.92-.91,1.81-1.85,2.75-2.73a1.72,1.72,0,0,1,2.41,0,1.64,1.64,0,0,1,.09,2.33q-3.06,3.13-6.24,6.15a1.7,1.7,0,0,1-2.41-.17q-2.92-2.88-5.81-5.81a1.54,1.54,0,0,1-.09-2.29,1.73,1.73,0,0,1,2.55-.12c.89.85,1.71,1.75,2.73,2.8a15.45,15.45,0,0,1,5.39-10.37,14.88,14.88,0,0,1,10.83-3.63A15.49,15.49,0,0,1,298.63,416.93Z" transform="translate(-262.27 -403.7)"/></svg>