<svg id="Слой_1" data-name="Слой 1" xmlns="http://www.w3.org/2000/svg" viewBox="0 0 13.98 13.95"><defs><style>.cls-1{fill:#020303;}</style></defs><path class="cls-1" d="M296.33,416.33a.59.59,0,0,0,.66.49h0a4.29,4.29,0,0,1,1.07-.13c3.12,0,5.18,3.13,5.73,4.06a9.85,9.85,0,0,1-1,1.48.58.58,0,0,0,.06.82h0a.57.57,0,0,0,.8-.05l0,0a11.7,11.7,0,0,0,1.35-2,.64.64,0,0,0,0-.54c-.1-.2-2.53-5-6.9-5a4.78,4.78,0,0,0-1.36.16.58.58,0,0,0-.44.68Z" transform="translate(-291.1 -413.8)"/><path class="cls-1" d="M304.88,426.72,292.11,414a.58.58,0,1,0-.84.8h0l2.49,2.49a11.34,11.34,0,0,0-2.59,3.21.55.55,0,0,0,0,.53c.1.21,2.53,5,6.91,5a6.42,6.42,0,0,0,3.38-1l2.59,2.59a.6.6,0,0,0,.83-.05.59.59,0,0,0,0-.75Zm-7.94-6.3,1.46,1.47a1.8,1.8,0,0,1-.32.06,1.15,1.15,0,0,1-1.2-1.1v0a1,1,0,0,1,.06-.41Zm1.14,4.39c-3.11,0-5.17-3.13-5.72-4.06a10.27,10.27,0,0,1,2.24-2.67l1.48,1.48a2.3,2.3,0,0,0,.69,3.18h0a2.25,2.25,0,0,0,1.29.36h.08a2.47,2.47,0,0,0,1.15-.36l1.35,1.35a5.32,5.32,0,0,1-2.58.71Z" transform="translate(-291.1 -413.8)"/></svg>