<svg id="Слой_1" data-name="Слой 1" xmlns="http://www.w3.org/2000/svg" viewBox="0 0 19.16 24.89"><defs><style>.cls-1{fill:#6f4226;}</style></defs><path class="cls-1" d="M307.63,415.05a1.22,1.22,0,0,0-.29-.71c-1.88-1.91-3.79-3.8-5.68-5.7a1,1,0,0,0-.75-.31h-9.48a2.82,2.82,0,0,0-2.9,2.68c0,2,0,4,0,6a.9.9,0,0,0,.63.87,1,1,0,0,0,1.27-1c0-1.83,0-3.67,0-5.5,0-.78.36-1.14,1.13-1.14H300v4.5c0,.91.32,1.23,1.21,1.23h4.53v.91a1,1,0,0,0,1,1,1,1,0,0,0,.94-1C307.65,416.27,307.67,415.66,307.63,415.05Zm-5.71-1v-2.35l2.35,2.35Z" transform="translate(-288.5 -408.33)"/><path class="cls-1" d="M306.74,429.4a1,1,0,0,0-1,.88,1,1,0,0,1-1.14,1h-13c-.82,0-1.11-.25-1.21-1.06a1,1,0,0,0-.93-.85,1,1,0,0,0-1,.79,1.68,1.68,0,0,0,0,.5,2.88,2.88,0,0,0,2.94,2.53h13.27a2.87,2.87,0,0,0,2.9-2.85A1,1,0,0,0,306.74,429.4Z" transform="translate(-288.5 -408.33)"/><path class="cls-1" d="M295.21,426.46a1,1,0,0,0,1,1c.65,0,1.29,0,1.94,0a2.77,2.77,0,0,0,2.74-2.41,13.91,13.91,0,0,0,0-2.66,2.72,2.72,0,0,0-2.39-2.52,18.57,18.57,0,0,0-2.24-.05,1,1,0,0,0-1.07,1.07v5.56Zm1.92-4.7a7.75,7.75,0,0,1,1.18,0,.9.9,0,0,1,.73.9c0,.66,0,1.32,0,2a.94.94,0,0,1-.91.93h-1Z" transform="translate(-288.5 -408.33)"/><path class="cls-1" d="M289.46,427.47a1,1,0,0,0,1-1c0-.3,0-.6,0-.9.52,0,1,0,1.47-.09a2.86,2.86,0,0,0,2.36-2.8,2.81,2.81,0,0,0-2.36-2.81,17.92,17.92,0,0,0-2.54-.05.91.91,0,0,0-.83,1v5.68A1,1,0,0,0,289.46,427.47Zm1-5.74c.36,0,.7,0,1,0a1,1,0,0,1,0,1.91c-.34,0-.68,0-1,0Z" transform="translate(-288.5 -408.33)"/><path class="cls-1" d="M306.72,419.83h-3.88a.91.91,0,0,0-.92.92c0,1.93,0,3.87,0,5.8a.95.95,0,0,0,1.89,0c0-.55,0-1.1,0-1.65v-.3h1.86a.93.93,0,0,0,.9-.53.94.94,0,0,0-.86-1.37h-1.89v-1h2.85a1,1,0,0,0,1-1A.93.93,0,0,0,306.72,419.83Z" transform="translate(-288.5 -408.33)"/></svg>