<svg id="Слой_1" data-name="Слой 1" xmlns="http://www.w3.org/2000/svg" viewBox="0 0 12.13 16.99"><defs><style>.cls-1{fill:#fff;}</style></defs><path class="cls-1" d="M304.14,415.37a3,3,0,0,0-3.08-3.09h-5.95a3,3,0,0,0-3.1,3.11v10.75a3,3,0,0,0,3.12,3.13h6a3,3,0,0,0,3-3V415.37Zm-1.21,5.41v5.4a1.82,1.82,0,0,1-1.88,1.88h-5.91a1.81,1.81,0,0,1-1.92-1.91V415.34a1.81,1.81,0,0,1,1.36-1.79,1.83,1.83,0,0,1,.47-.05h6.07a1.81,1.81,0,0,1,1.81,1.83Z" transform="translate(-292.01 -412.28)"/><path class="cls-1" d="M299.84,414.71h-3.53a.61.61,0,1,0,0,1.21h3.53a.61.61,0,1,0,0-1.21Z" transform="translate(-292.01 -412.28)"/></svg>