<svg id="Слой_1" data-name="Слой 1" xmlns="http://www.w3.org/2000/svg" viewBox="0 0 16.8 16.8"><defs><style>.cls-1{fill:#6d5844;}</style></defs><path class="cls-1" d="M297.87,429.18a8.4,8.4,0,1,1,8.6-8.2A8.44,8.44,0,0,1,297.87,429.18Zm7.64-8.39a7.44,7.44,0,1,0-7.44,7.42A7.43,7.43,0,0,0,305.51,420.79Z" transform="translate(-289.68 -412.38)"/><path class="cls-1" d="M297.59,422.56a2,2,0,0,1,.49-1.57,2.62,2.62,0,0,1,.75-.53,1.93,1.93,0,1,0-2.66-2,2.11,2.11,0,0,0,0,.25.48.48,0,1,1-1-.06,2.89,2.89,0,0,1,5.73-.47,2.91,2.91,0,0,1-1.65,3.14,1,1,0,0,0-.72,1.1c0,.21,0,.42,0,.63a.42.42,0,0,1-.47.41.48.48,0,0,1-.48-.45C297.58,422.84,297.59,422.68,297.59,422.56Z" transform="translate(-289.68 -412.38)"/><path class="cls-1" d="M298.08,424.28a.76.76,0,1,1-.76.77A.76.76,0,0,1,298.08,424.28Z" transform="translate(-289.68 -412.38)"/></svg>