<svg id="Слой_1" data-name="Слой 1" xmlns="http://www.w3.org/2000/svg" viewBox="0 0 15.85 13.9"><defs><style>.cls-1{fill:#663618;}</style></defs><path class="cls-1" d="M289.84,419.78a1.71,1.71,0,0,1,.29-.4.61.61,0,0,1,.84.07l.7.7.12.1c.07-.37.12-.73.21-1.09a7,7,0,1,1,3.62,8,.68.68,0,0,1-.39-.8.67.67,0,0,1,.95-.4,5.77,5.77,0,0,0,1.58.53,5.63,5.63,0,1,0-4.55-6.66c0,.14,0,.28-.08.47l.13-.12.7-.7a.66.66,0,1,1,.93.94L293,422.33a.65.65,0,0,1-1,0c-.65-.64-1.3-1.29-1.94-1.94a1.88,1.88,0,0,1-.21-.37Z" transform="translate(-289.84 -413.97)"/></svg>