<svg id="Слой_1" data-name="Слой 1" xmlns="http://www.w3.org/2000/svg" viewBox="0 0 11.7 12.04"><defs><style>.cls-1{fill:#b79457;}</style></defs><path class="cls-1" d="M302.56,416.58c0-.53,0-1,0-1.54a.51.51,0,0,1,.62-.51.53.53,0,0,1,.38.52c0,.83,0,1.67,0,2.51,0,.18,0,.35,0,.53a.49.49,0,0,1-.49.5H300a.5.5,0,1,1,0-1h2.1l-.08-.11a4.81,4.81,0,0,0-4-1.65,4.87,4.87,0,1,0,5.16,5.67.6.6,0,0,1,.22-.47.5.5,0,0,1,.54,0,.49.49,0,0,1,.25.5,5.87,5.87,0,1,1-7-6.56,5.75,5.75,0,0,1,5.24,1.55Z" transform="translate(-292.49 -414.52)"/></svg>