<svg id="Слой_1" data-name="Слой 1" xmlns="http://www.w3.org/2000/svg" viewBox="0 0 19.63 26.22"><defs><style>.cls-1{fill:#daaf66;}</style></defs><path class="cls-1" d="M288.26,421.15h2.47V407.66h7.08c3.19,0,5.25.49,6.93,1.65a7,7,0,0,1,3.15,6.26,7.94,7.94,0,0,1-2.32,5.84c-1.8,1.8-4.12,2.7-7.87,2.7h-3.48v2.51H306.8v3H294.22v4.31h-3.49v-4.31h-2.47v-3h2.47v-2.47h-2.47Zm14.08-9.44a8,8,0,0,0-4.68-1h-3.44v10.49h2.92c2.85,0,4.46-.52,5.62-1.61a5.11,5.11,0,0,0,1.5-3.86A4.32,4.32,0,0,0,302.34,411.71Z" transform="translate(-288.26 -407.66)"/></svg>