<svg id="Слой_1" data-name="Слой 1" xmlns="http://www.w3.org/2000/svg" viewBox="0 0 31.95 31.95"><defs><style>.cls-1{fill:#e52521;}.cls-2{fill:#fff;}</style></defs><circle class="cls-1" cx="15.97" cy="15.97" r="15.97"/><path class="cls-2" d="M306,418.87a1.1,1.1,0,0,0-.82-.75l-4-.9L299,413.57a1.14,1.14,0,0,0-1.89,0L295,417.22l-4,.9a1.1,1.1,0,0,0-.56,1.83l3.07,3.26-.72,4a1.11,1.11,0,0,0,1.61,1.18l3.74-2,3.75,2a1.17,1.17,0,0,0,.52.12,1.09,1.09,0,0,0,1.08-1.3l-.71-4,3.07-3.27A1.1,1.1,0,0,0,306,418.87Zm-5.31,3.24a1.1,1.1,0,0,0-.28.95l.41,2.28-2.26-1.2a1.09,1.09,0,0,0-1,0l-2.26,1.2.41-2.28a1.1,1.1,0,0,0-.28-.95l-2.12-2.26,2.59-.58a1.12,1.12,0,0,0,.71-.51l1.46-2.47,1.47,2.47a1.12,1.12,0,0,0,.71.51l2.59.58Z" transform="translate(-282.1 -404.8)"/></svg>