<svg id="Слой_1" data-name="Слой 1" xmlns="http://www.w3.org/2000/svg" viewBox="0 0 31.95 31.95"><defs><style>.cls-1{fill:#db8709;}.cls-2{fill:#fff;}</style></defs><circle class="cls-1" cx="15.97" cy="15.97" r="15.97"/><path class="cls-2" d="M306.08,418a3.1,3.1,0,0,0-2.85-3.2A5.31,5.31,0,0,0,301,415a5.1,5.1,0,0,0-3-1,5.42,5.42,0,0,0-2.84.93,9.73,9.73,0,0,0-2.1-.11,3.36,3.36,0,0,0-3.06,3.19,3.2,3.2,0,0,0,1.31,2.57l-.55,4.92.28.27c.18.19,2,1.84,7,1.84s6.79-1.65,7-1.84l.27-.27-.54-4.92A3.2,3.2,0,0,0,306.08,418Zm-8,8a10.53,10.53,0,0,1-5.55-1.17l.5-4.47c.09-.18.5-.76,1.85-.76V418a3.76,3.76,0,0,0-2.81,1,1.53,1.53,0,0,1-.39-1c0-1.2,1.34-1.54,1.73-1.62a12.59,12.59,0,0,1,1.92.17l.34.05.27-.22a4,4,0,0,1,2.14-.79,3.49,3.49,0,0,1,2.24.89l.38.38.5-.21a4.06,4.06,0,0,1,1.83-.26,1.52,1.52,0,0,1,1.46,1.61,1.32,1.32,0,0,1-1.47,1.38,2.31,2.31,0,0,1-1.49-1.06l-1.28,1a3.77,3.77,0,0,0,2.66,1.7h.3l.43,3.85A10.62,10.62,0,0,1,298.07,426Z" transform="translate(-282.1 -404.8)"/></svg>