<svg id="Слой_1" data-name="Слой 1" xmlns="http://www.w3.org/2000/svg" viewBox="0 0 55.76 55.77"><defs><style>.cls-1{fill:#663618;}</style></defs><path class="cls-1" d="M299.62,445.13a2.07,2.07,0,0,0-2.17-1.29,33.79,33.79,0,0,1-7-.65,20.71,20.71,0,0,1-8.09-3.26,17,17,0,0,1-6.48-9.87,38.15,38.15,0,0,1-1.05-11.75,30.82,30.82,0,0,1,1.28-7.86,16.4,16.4,0,0,1,10.76-11.36,30.43,30.43,0,0,1,8.29-1.54,38.19,38.19,0,0,1,12.24,1,17.09,17.09,0,0,1,9.2,5.63,19.94,19.94,0,0,1,3.91,9,36.84,36.84,0,0,1,.65,7.34,1.57,1.57,0,0,0,.69,1.46,14.24,14.24,0,0,0,1.76,1,1.58,1.58,0,0,0,2.21-1.42,38.91,38.91,0,0,0-1.65-12.82,20.75,20.75,0,0,0-9.41-12.1,29,29,0,0,0-12-3.58l-2.1-.21h-5.44c-1,.11-2,.2-3.06.33a27.56,27.56,0,0,0-11.87,4,21,21,0,0,0-8.67,12,34.53,34.53,0,0,0-1.43,8.32c0,.22-.07.42-.1.64v5.33a4.76,4.76,0,0,1,.1.52,34.83,34.83,0,0,0,1.22,7.6c2.05,7.39,6.56,12.54,13.86,15.12A38.63,38.63,0,0,0,299,448.51a1.46,1.46,0,0,0,1.27-2.08C300.11,446,299.82,445.57,299.62,445.13Z" transform="translate(-270.1 -392.8)"/><path class="cls-1" d="M307.93,416.56a15.66,15.66,0,0,0,0-7.9,7.87,7.87,0,0,0-5.89-6.07,15.46,15.46,0,0,0-8.21,0,7.86,7.86,0,0,0-5.88,5.94,15.67,15.67,0,0,0,0,8,7.79,7.79,0,0,0,5.85,6,35,35,0,0,0,3.88.63c1.3-.14,2.35-.18,3.38-.37A8,8,0,0,0,307.93,416.56Z" transform="translate(-270.1 -392.8)"/><path class="cls-1" d="M325.27,432.44a8.66,8.66,0,0,0-6.44-6.55,17.12,17.12,0,0,0-9.39,0,8.7,8.7,0,0,0-6.19,6.09,19.59,19.59,0,0,0-.73,4.88c.11,1.12.16,2.25.35,3.35.72,4,2.92,6.72,6.95,7.76a17.28,17.28,0,0,0,8.86,0,8.7,8.7,0,0,0,6.58-6.55A17.42,17.42,0,0,0,325.27,432.44ZM320,438.39c-.81.22-1.62.38-2.43.55a1.62,1.62,0,0,0-1.37,1.36c-.16.8-.32,1.59-.53,2.38a1.48,1.48,0,0,1-1.5,1.17,1.5,1.5,0,0,1-1.5-1.18c-.2-.73-.34-1.48-.5-2.22a1.79,1.79,0,0,0-1.49-1.52c-.76-.16-1.52-.32-2.27-.52a1.55,1.55,0,0,1,0-3c.71-.19,1.44-.33,2.17-.49a1.85,1.85,0,0,0,1.59-1.61c.14-.69.28-1.39.46-2.07a1.54,1.54,0,0,1,1.55-1.26,1.51,1.51,0,0,1,1.5,1.25c.2.73.35,1.47.51,2.22a1.69,1.69,0,0,0,1.51,1.47c.73.14,1.45.29,2.17.47a1.54,1.54,0,0,1,1.23,1.52A1.47,1.47,0,0,1,320,438.39Z" transform="translate(-270.1 -392.8)"/><path class="cls-1" d="M284,432.72a3.39,3.39,0,0,0,1.67,3.35,11.68,11.68,0,0,0,1.91,1,34.81,34.81,0,0,0,8.6,1.94c1.06.14,1.71-.55,1.77-1.63a27.19,27.19,0,0,1,.3-3.73c.27-1.47.73-2.91,1.13-4.35a1.73,1.73,0,0,0-1.53-2.34,40,40,0,0,1-8.71-1.1,3.44,3.44,0,0,0-3.82,1.64A9.53,9.53,0,0,0,284,432.72Z" transform="translate(-270.1 -392.8)"/></svg>