<svg id="Слой_1" data-name="Слой 1" xmlns="http://www.w3.org/2000/svg" viewBox="0 0 13.85 15.84"><defs><style>.cls-1{fill:#fff;}</style></defs><path class="cls-1" d="M298.07,423.24a5.19,5.19,0,1,0-5.18-5.19A5.19,5.19,0,0,0,298.07,423.24Zm0-8.9a3.71,3.71,0,1,1-3.7,3.71A3.71,3.71,0,0,1,298.07,414.34Z" transform="translate(-291.15 -412.86)"/><path class="cls-1" d="M304.9,427.53a9.69,9.69,0,0,0-13.65,0l-.1.11,1.05,1.05.11-.1a8.15,8.15,0,0,1,11.53,0l.11.1,1.05-1.05Z" transform="translate(-291.15 -412.86)"/></svg>